<svg id="Linkedin" xmlns="http://www.w3.org/2000/svg" width="18.829" height="18.829" viewBox="0 0 18.829 18.829">
  <g id="post-linkedin">
    <path id="Path_3" data-name="Path 3" d="M16.946,0H1.883A1.888,1.888,0,0,0,0,1.883V16.946a1.888,1.888,0,0,0,1.883,1.883H16.946a1.888,1.888,0,0,0,1.883-1.883V1.883A1.888,1.888,0,0,0,16.946,0ZM5.649,16H2.824V7.532H5.649ZM4.237,5.931A1.695,1.695,0,1,1,5.931,4.237,1.688,1.688,0,0,1,4.237,5.931ZM16,16H13.18v-4.99a1.412,1.412,0,1,0-2.824,0V16H7.532V7.532h2.824v1.13A3.041,3.041,0,0,1,12.71,7.343a3.336,3.336,0,0,1,3.3,3.3Z"/>
  </g>
</svg>
