<svg id="Twitter" xmlns="http://www.w3.org/2000/svg" width="18.829" height="18.829" viewBox="0 0 18.829 18.829">
  <g id="post-twitter">
    <path id="Path_2" data-name="Path 2" d="M16.946,0H1.883A1.888,1.888,0,0,0,0,1.883V16.946a1.888,1.888,0,0,0,1.883,1.883H16.946a1.888,1.888,0,0,0,1.883-1.883V1.883A1.888,1.888,0,0,0,16.946,0ZM14.781,6.873c-.094,4.331-2.824,7.343-6.967,7.532a6.853,6.853,0,0,1-4.048-1.13,5,5,0,0,0,3.672-1.036A2.543,2.543,0,0,1,5.084,10.45a3.8,3.8,0,0,0,1.036,0A2.565,2.565,0,0,1,4.142,7.908a1.9,1.9,0,0,0,1.036.282A2.784,2.784,0,0,1,4.425,4.8,7.46,7.46,0,0,0,9.6,7.437C8.944,4.8,12.521,3.389,13.933,5.178a6.342,6.342,0,0,0,1.6-.565A2.662,2.662,0,0,1,14.5,6.025a5.4,5.4,0,0,0,1.318-.377C15.722,6.119,15.251,6.5,14.781,6.873Z"/>
  </g>
</svg>
